<svg xmlns="http://www.w3.org/2000/svg" version="1.1" xmlns:xlink="http://www.w3.org/1999/xlink" xmlns:svgjs="http://svgjs.dev/svgjs" width="1500" height="1500" viewBox="0 0 1500 1500"><rect width="1500" height="1500" fill="#ffffff"></rect><g transform="matrix(0.6666666666666666,0,0,0.6666666666666666,249.39393939393938,595.3821953081233)"><svg viewBox="0 0 396 123" data-background-color="#ffffff" preserveAspectRatio="xMidYMid meet" height="465" width="1500" xmlns="http://www.w3.org/2000/svg" xmlns:xlink="http://www.w3.org/1999/xlink"><g id="tight-bounds" transform="matrix(1,0,0,1,0.2400000000000091,-0.15164523515861106)"><svg viewBox="0 0 395.52 123.30329047031724" height="123.30329047031724" width="395.52"><g><svg viewBox="0 0 395.52 123.30329047031724" height="123.30329047031724" width="395.52"><g transform="matrix(1,0,0,1,0,70.95623045819357)"><svg viewBox="0 0 395.52 52.34706001212366" height="52.34706001212366" width="395.52"><g id="textblocktransform"><svg viewBox="0 0 395.52 52.34706001212366" height="52.34706001212366" width="395.52" id="textblock"><g><svg viewBox="0 0 395.52 52.34706001212366" height="52.34706001212366" width="395.52"><g transform="matrix(1,0,0,1,0,0)"><svg width="395.52" viewBox="-12.5 -32 247.44 32.75" height="52.34706001212366" data-palette-color="#1e55b3"><path d="M21.55-4.95L19.6 0 9.6 0 22.75-31.25 37.45-31.25 39.65 0 29.6 0 29.4-4.95 21.55-4.95ZM24.65-12.9L28.65-12.9 28.65-21.65 28.15-21.65 24.65-12.9ZM8.95-2.4L8-0.2-12.5-2.4 8.95-2.4ZM11-7.25L10.05-5.05-10.45-7.25 11-7.25ZM13-12.05L12.1-9.85-8.4-12.05 13-12.05ZM15.05-16.85L14.1-14.65-6.35-16.85 15.05-16.85ZM17.05-21.65L16.15-19.45-4.3-21.65 17.05-21.65ZM21.1-31.25L20.2-29.1-0.2-31.25 21.1-31.25ZM19.05-26.45L18.15-24.3-2.25-26.45 19.05-26.45ZM-0.2-31.25L20.2-29.1 21.1-31.25-0.2-31.25ZM73.15-8L71.75 0 52.75 0 58.25-31.25 67.75-31.25 63.65-8 73.15-8ZM51.65-2.4L51.25-0.15 30.05-2.4 51.65-2.4ZM53.35-12.05L52.95-9.8 31.75-12.05 53.35-12.05ZM54.2-16.85L53.8-14.6 32.6-16.85 54.2-16.85ZM55.05-21.65L54.65-19.4 33.45-21.65 55.05-21.65ZM55.85-26.45L55.5-24.2 34.3-26.45 55.85-26.45ZM52.5-7.25L52.1-5 30.9-7.25 52.5-7.25ZM56.7-31.25L56.3-29 35.15-31.25 56.7-31.25ZM110.75-18.2L107.8-1.5Q101.7 0.75 95.55 0.75 89.4 0.75 86.67-1.7 83.95-4.15 83.95-9.25L83.95-9.25Q83.95-11.4 84.65-15.6L84.65-15.6Q86.15-24.3 89.95-28.15 93.75-32 102.55-32L102.55-32Q104.45-32 107.3-31.6 110.15-31.2 111.5-30.7L111.5-30.7 108.75-23.05Q105-23.75 101.87-23.75 98.75-23.75 97.4-23.25 96.05-22.75 95.8-21.25L95.8-21.25 93.35-7.1 96.5-7.1Q98.2-7.1 99.02-7.48 99.85-7.85 100.1-9.2L100.1-9.2 100.35-10.55 97.95-10.55 99.3-18.2 110.75-18.2ZM83.4-16.85L83.25-15.85Q83.15-15.45 83.05-14.75L83.05-14.75 63.4-16.85 83.4-16.85ZM62.85-12.05L82.7-12.05Q82.55-10.9 82.55-9.95L82.55-9.95 62.85-12.05ZM64.6-21.65L84.6-21.65 84-19.6 64.6-21.65ZM63.5-7.25L82.6-7.25Q82.8-5.85 82.95-5.15L82.95-5.15 63.5-7.25ZM66.95-26.45L86.65-26.45Q85.95-25.15 85.65-24.45L85.65-24.45 66.95-26.45ZM68.3-2.4L84.1-2.4Q84.75-1.25 85.6-0.55L85.6-0.55 68.3-2.4ZM73.85-31.25L91.4-31.25Q89.95-30.35 89.15-29.6L89.15-29.6 73.85-31.25ZM131.79-7.8L135.74-7.8Q137.69-7.8 138.64-8.28 139.59-8.75 139.89-10.45L139.89-10.45 142.19-23.45 138.19-23.45Q136.29-23.45 135.34-22.98 134.39-22.5 134.09-20.8L134.09-20.8 131.79-7.8ZM139.84-32L139.84-32Q146.19-32 148.89-29.53 151.59-27.05 151.59-21.9 151.59-16.75 149.97-11.13 148.34-5.5 144.82-2.38 141.29 0.75 134.52 0.75 127.74 0.75 125.04-1.73 122.34-4.2 122.34-9.35L122.34-9.35Q122.34-11.8 123.04-15.83 123.74-19.85 124.89-22.78 126.04-25.7 127.99-27.85L127.99-27.85Q131.74-32 139.84-32ZM121.74-16.85L121.59-15.85Q121.49-15.45 121.39-14.75L121.39-14.75 101.74-16.85 121.74-16.85ZM101.19-12.05L121.04-12.05Q120.89-10.9 120.89-9.95L120.89-9.95 101.19-12.05ZM102.94-21.65L122.94-21.65 122.34-19.6 102.94-21.65ZM101.84-7.25L120.94-7.25Q121.14-5.85 121.29-5.15L121.29-5.15 101.84-7.25ZM105.29-26.45L124.99-26.45Q124.29-25.15 123.99-24.45L123.99-24.45 105.29-26.45ZM106.64-2.4L122.44-2.4Q123.09-1.25 123.94-0.55L123.94-0.55 106.64-2.4ZM112.19-31.25L129.74-31.25Q128.29-30.35 127.49-29.6L127.49-29.6 112.19-31.25ZM180.39 0L175.29-11.1Q175.09-11.45 175.09-12.08 175.09-12.7 175.19-13.5L175.19-13.5 174.79-13.5 172.44 0 162.94 0 168.44-31.25 177.39-31.25 182.49-20.15Q182.64-19.8 182.64-19.18 182.64-18.55 182.54-17.75L182.54-17.75 182.94-17.75 185.34-31.25 194.84-31.25 189.34 0 180.39 0ZM161.84-2.4L161.44-0.15 140.24-2.4 161.84-2.4ZM163.54-12.05L163.14-9.8 141.94-12.05 163.54-12.05ZM164.39-16.85L163.99-14.6 142.79-16.85 164.39-16.85ZM165.24-21.65L164.84-19.4 143.64-21.65 165.24-21.65ZM166.04-26.45L165.69-24.2 144.49-26.45 166.04-26.45ZM162.69-7.25L162.29-5 141.09-7.25 162.69-7.25ZM166.89-31.25L166.49-29 145.34-31.25 166.89-31.25ZM216.84-4.95L214.89 0 204.89 0 218.04-31.25 232.74-31.25 234.94 0 224.89 0 224.69-4.95 216.84-4.95ZM219.94-12.9L223.94-12.9 223.94-21.65 223.44-21.65 219.94-12.9ZM204.24-2.4L203.29-0.2 182.79-2.4 204.24-2.4ZM206.29-7.25L205.34-5.05 184.84-7.25 206.29-7.25ZM208.29-12.05L207.39-9.85 186.89-12.05 208.29-12.05ZM210.34-16.85L209.39-14.65 188.94-16.85 210.34-16.85ZM212.34-21.65L211.44-19.45 190.99-21.65 212.34-21.65ZM216.39-31.25L215.49-29.1 195.09-31.25 216.39-31.25ZM214.34-26.45L213.44-24.3 193.04-26.45 214.34-26.45ZM195.09-31.25L215.49-29.1 216.39-31.25 195.09-31.25Z" opacity="1" transform="matrix(1,0,0,1,0,0)" fill="#000000" class="wordmark-text-0" data-fill-palette-color="primary" id="text-0"></path></svg></g></svg></g></svg></g></svg></g><g transform="matrix(1,0,0,1,107.30251802433993,0)"><svg viewBox="0 0 180.91496395132012 58.59834591877147" height="58.59834591877147" width="180.91496395132012"><g><svg xmlns="http://www.w3.org/2000/svg" xmlns:xlink="http://www.w3.org/1999/xlink" version="1.1" x="0" y="0" viewBox="0.19800000000000084 32.884 99.53999999999999 32.241" enable-background="new 0 0 100 100" xml:space="preserve" height="58.59834591877147" width="180.91496395132012" class="icon-icon-0" data-fill-palette-color="accent" id="icon-0"><g fill="#ff585f" data-fill-palette-color="accent"><path d="M76.424 61.068c0 1.481 1.199 2.683 2.683 2.683s2.683-1.201 2.683-2.683c0-1.483-1.199-2.684-2.683-2.684S76.424 59.585 76.424 61.068L76.424 61.068zM86.794 61.068c0 1.481 1.203 2.683 2.683 2.683 1.483 0 2.683-1.201 2.683-2.683 0-1.483-1.199-2.684-2.683-2.684C87.997 58.385 86.794 59.585 86.794 61.068L86.794 61.068zM7.991 45.406v-3.381H2.119c-0.757 0-1.37 0.613-1.37 1.371v6.418l1.364-0.386C5.876 48.245 7.991 48.141 7.991 45.406L7.991 45.406zM27.331 61.068c0 0.469 0.065 0.921 0.188 1.35H15.062h-0.546-0.269H13.41c0.123-0.429 0.188-0.881 0.188-1.35 0-2.711-2.197-4.909-4.907-4.909-2.711 0-4.907 2.198-4.907 4.909 0 0.463 0.063 0.912 0.185 1.337-2.705-0.146-3.771-1.564-3.771-2.388v-0.477-2.293c0-0.407 0.261-0.963 0.854-1.434-0.593-0.475-0.854-1.029-0.854-1.437V42.665c0-3.139 2.426-3.258 6.745-4.616 0 0 7.663-2.16 8.119-2.299v19.096 1.933l1.426 0.001V32.884h83.25v23.896h-7.866c1.503 0.837 2.521 2.445 2.521 4.289v0.053h-0.86c-0.025 2.214-1.83 4.003-4.056 4.003-2.221 0-4.024-1.789-4.054-4.003h-0.844l-0.002-0.053c0-1.844 1.018-3.452 2.521-4.289h-5.599c1.506 0.837 2.52 2.445 2.52 4.289v0.053h-0.856c-0.027 2.214-1.832 4.003-4.056 4.003-2.221 0-4.028-1.789-4.058-4.003h-0.845v-0.053c0-1.844 1.019-3.452 2.521-4.289h-3.433v1.186H41.088v3.275h32.205v1.187H39.99v-5.647l-1.939-0.001v5.64h-1.085c0.123-0.429 0.188-0.881 0.188-1.35 0-1.845-1.019-3.453-2.523-4.29-0.715-0.395-1.527-0.619-2.393-0.619C29.529 56.159 27.331 58.357 27.331 61.068L27.331 61.068zM6.007 61.068c0 1.481 1.202 2.683 2.685 2.683 1.481 0 2.683-1.201 2.683-2.683 0-1.483-1.201-2.684-2.683-2.684C7.209 58.385 6.007 59.585 6.007 61.068L6.007 61.068zM4.635 61.068c0-2.238 1.816-4.057 4.057-4.057 2.239 0 4.056 1.818 4.056 4.057 0 2.24-1.816 4.056-4.056 4.056C6.451 65.124 4.635 63.309 4.635 61.068L4.635 61.068zM29.569 61.068c0 1.481 1.202 2.683 2.685 2.683s2.684-1.201 2.684-2.683c0-1.483-1.201-2.684-2.684-2.684S29.569 59.585 29.569 61.068L29.569 61.068zM28.197 61.068c0-2.238 1.816-4.057 4.057-4.057 2.239 0 4.057 1.818 4.057 4.057 0 2.24-1.817 4.056-4.057 4.056C30.014 65.124 28.197 63.309 28.197 61.068L28.197 61.068z" fill="#000000" data-fill-palette-color="accent"></path></g></svg></g></svg></g><g></g></svg></g><defs></defs></svg><rect width="395.52" height="123.30329047031724" fill="none" stroke="none" visibility="hidden"></rect></g></svg></g></svg>